<svg width="27" height="33" fill="none" xmlns="http://www.w3.org/2000/svg"><path d="M13.313 24.567a.496.496 0 01-.496-.495l.001-11.18a.496.496 0 01.992 0l-.001 11.18a.496.496 0 01-.496.495z" fill="#F0B45B"/><path d="M13.313 24.568a.497.497 0 01-.351-.145L8.687 20.15a.496.496 0 01.7-.701l3.925 3.924 3.924-3.924a.496.496 0 01.7.7l-4.274 4.276a.49.49 0 01-.35.144z" fill="#F0B45B"/><path d="M24.149 33H2.478A2.48 2.48 0 010 30.522V2.478A2.48 2.48 0 012.478 0h15.737a.496.496 0 010 .991H2.478c-.82 0-1.487.667-1.487 1.487v28.044c0 .82.667 1.487 1.487 1.487h21.67c.82 0 1.487-.667 1.487-1.487V8.627a.496.496 0 01.992 0v21.896A2.48 2.48 0 0124.149 33z" fill="#292325"/><path d="M26.131 9.123h-7.916a.496.496 0 01-.495-.496V.71a.496.496 0 01.99 0v7.42h7.421a.496.496 0 010 .993z" fill="#292325"/><path d="M26.131 9.124a.496.496 0 01-.355-.15L17.861.844a.496.496 0 01.71-.692l7.916 8.131a.496.496 0 01-.356.84z" fill="#292325"/></svg>