<svg width="48" height="51" fill="none" xmlns="http://www.w3.org/2000/svg"><path d="M45.686 25.66a1.466 1.466 0 010-1.296l1.865-3.816a4.342 4.342 0 00-1.873-5.767l-3.753-1.991a1.467 1.467 0 01-.762-1.049l-.734-4.184a4.343 4.343 0 00-4.905-3.564l-4.207.595a1.466 1.466 0 01-1.232-.4l-3.053-2.954a4.342 4.342 0 00-6.064 0l-3.053 2.954c-.33.318-.778.464-1.232.4l-4.207-.595a4.342 4.342 0 00-4.905 3.564l-.734 4.184c-.08.452-.357.834-.762 1.049l-3.753 1.99A4.343 4.343 0 00.45 20.548l1.865 3.817a1.46 1.46 0 010 1.295L.45 29.477a4.343 4.343 0 001.873 5.767l3.753 1.99c.405.216.683.598.762 1.05l.734 4.184a4.34 4.34 0 004.905 3.564l4.207-.595c.453-.065.902.082 1.232.4l3.053 2.954a4.346 4.346 0 006.064 0l3.053-2.954c.33-.319.779-.464 1.232-.4l4.207.595a4.342 4.342 0 004.905-3.564l.734-4.185c.08-.451.357-.833.762-1.048l3.753-1.991a4.343 4.343 0 001.873-5.767l-1.865-3.817zm-1.36 7.035l-3.753 1.991a4.333 4.333 0 00-2.251 3.099l-.734 4.184a1.47 1.47 0 01-1.66 1.206l-4.206-.595a4.332 4.332 0 00-3.643 1.183l-3.053 2.954a1.47 1.47 0 01-2.052 0l-3.053-2.954a4.328 4.328 0 00-3.642-1.183l-4.207.595a1.47 1.47 0 01-1.66-1.206l-.734-4.185a4.333 4.333 0 00-2.25-3.098l-3.754-1.991a1.47 1.47 0 01-.634-1.951l1.866-3.817a4.333 4.333 0 000-3.83L3.04 19.281a1.47 1.47 0 01.634-1.951l3.753-1.992a4.333 4.333 0 002.251-3.098l.734-4.185a1.47 1.47 0 011.66-1.205l4.206.595a4.333 4.333 0 003.643-1.184l3.053-2.954a1.47 1.47 0 012.052 0l3.053 2.954a4.332 4.332 0 003.642 1.184l4.207-.595a1.47 1.47 0 011.66 1.205l.733 4.185a4.332 4.332 0 002.252 3.098l3.752 1.992a1.47 1.47 0 01.634 1.95l-1.865 3.817a4.332 4.332 0 000 3.83l1.865 3.817a1.47 1.47 0 01-.634 1.95z" fill="#F0B45B"/><path d="M34.54 14.473a1.442 1.442 0 00-2.04 0L13.46 33.515a1.443 1.443 0 002.04 2.04l19.04-19.041a1.442 1.442 0 000-2.04zm-16.31-2.446a5.296 5.296 0 00-5.29 5.29 5.296 5.296 0 005.29 5.29 5.296 5.296 0 005.29-5.29 5.296 5.296 0 00-5.29-5.29zm0 7.694a2.407 2.407 0 01-2.404-2.404 2.407 2.407 0 012.404-2.405 2.407 2.407 0 012.404 2.405 2.407 2.407 0 01-2.404 2.404zm11.54 7.697a5.296 5.296 0 00-5.29 5.29 5.296 5.296 0 005.29 5.289 5.296 5.296 0 005.29-5.29 5.296 5.296 0 00-5.29-5.289zm0 7.694a2.407 2.407 0 01-2.404-2.404 2.407 2.407 0 012.404-2.405 2.407 2.407 0 012.404 2.405 2.407 2.407 0 01-2.404 2.404z" fill="#F0B45B"/></svg>