<svg width="51" height="50" fill="none" xmlns="http://www.w3.org/2000/svg"><path d="M47.178 25.032a1.244 1.244 0 00-1.598-.742l-11.67 4.275 9.433-9.427a1.249 1.249 0 000-1.762l-7.297-7.302a1.245 1.245 0 00-1.762 0l-9.252 9.246L30.22 7.01a1.244 1.244 0 00-.664-1.631l-9.512-4.01a1.244 1.244 0 00-1.632.663L13.288 14.19V1.246C13.288.558 12.73 0 12.042 0H1.246C.558 0 0 .558 0 1.246v47.338c0 .688.558 1.246 1.246 1.246h10.796c.152 0 .297-.032.431-.081.135.049.275.081.421.081.143 0 .288-.024.429-.076l36.664-13.432c.646-.237.978-.953.742-1.598l-3.551-9.692zM7.364 47.339H2.492V2.492h8.305v44.846H7.364zM27.442 7.19L20.36 23.989l-1.283 3.043-1.284 3.043-2.19 5.196-1.324 3.138-.991 2.355v-20.16L20.225 4.15l7.216 3.042zm-9.964 30.046L18.8 34.1l3.665-8.693 12.697-12.69 5.537 5.54-12.355 12.348-4.191 4.188-9.754 9.747 3.078-7.302zm-.937 8.685l13.176-13.167 15.55-5.697 2.694 7.353-31.42 11.51z" fill="#F0B45B"/><path d="M6.643 42.219c-.054 0-.106.012-.159.015a1.798 1.798 0 00-1.586 1.363 1.809 1.809 0 00-.054.422c0 .395.131.757.347 1.054.327.449.853.744 1.452.744.088 0 .17-.013.255-.026a1.803 1.803 0 001.265-.82c.147-.233.237-.503.263-.794.004-.053.015-.105.015-.16a1.796 1.796 0 00-1.798-1.798z" fill="#F0B45B"/></svg>