<svg width="43" height="50" fill="none" xmlns="http://www.w3.org/2000/svg"><path d="M42.528 13.566l-.002-.039c-.022-.48-.036-.988-.045-1.553-.04-2.757-2.232-5.038-4.99-5.192-5.748-.32-10.195-2.195-13.995-5.899l-.032-.03a3.2 3.2 0 00-4.35 0l-.032.03c-3.8 3.704-8.247 5.578-13.995 5.9-2.757.153-4.949 2.434-4.99 5.19a51.53 51.53 0 01-.045 1.554l-.002.09c-.112 5.863-.25 13.158 2.19 19.78 1.342 3.642 3.374 6.807 6.04 9.409 3.037 2.963 7.014 5.316 11.821 6.992a3.648 3.648 0 001.188.201 3.586 3.586 0 001.19-.202c4.802-1.68 8.774-4.033 11.808-6.996 2.665-2.602 4.698-5.769 6.04-9.41 2.45-6.642 2.312-13.952 2.2-19.825zm-4.953 18.81c-2.574 6.978-7.829 11.772-16.064 14.652a.658.658 0 01-.443 0c-8.245-2.875-13.503-7.666-16.075-14.645-2.25-6.104-2.122-12.801-2.01-18.71l.001-.032c.023-.508.038-1.04.047-1.624a2.355 2.355 0 012.22-2.305c3.253-.182 6.11-.81 8.737-1.922 2.622-1.11 4.951-2.675 7.12-4.784a.27.27 0 01.363 0c2.168 2.11 4.498 3.674 7.12 4.784 2.626 1.112 5.484 1.74 8.737 1.922a2.355 2.355 0 012.22 2.305c.008.588.024 1.12.047 1.624.112 5.915.236 12.617-2.02 18.734z" fill="#F0B45B"/><path d="M21.289 12.54c-6.871 0-12.46 5.59-12.46 12.46 0 6.87 5.589 12.46 12.46 12.46 6.87 0 12.46-5.59 12.46-12.46 0-6.87-5.59-12.46-12.46-12.46zm0 21.986c-5.253 0-9.527-4.273-9.527-9.526s4.274-9.527 9.527-9.527c5.252 0 9.526 4.274 9.526 9.527 0 5.253-4.274 9.526-9.526 9.526z" fill="#F0B45B"/><path d="M24.87 21.133l-5.788 5.788-1.57-1.571a1.467 1.467 0 00-2.076 2.074l2.609 2.609a1.462 1.462 0 002.075 0l6.824-6.826a1.467 1.467 0 00-2.074-2.074z" fill="#F0B45B"/></svg>