<?xml version="1.0" encoding="utf-8"?><svg xmlns="http://www.w3.org/2000/svg" xmlns:xlink="http://www.w3.org/1999/xlink"><symbol fill="none" viewBox="0 0 13 9" id="arrow" xmlns="http://www.w3.org/2000/svg"><path stroke="#222" d="M0 4.5h12M8.535 1l3.536 3.536L8.535 8.07"/></symbol><symbol fill="none" viewBox="0 0 27 33" id="download" xmlns="http://www.w3.org/2000/svg"><path d="M13.313 24.567a.496.496 0 01-.496-.495l.001-11.18a.496.496 0 01.992 0l-.001 11.18a.496.496 0 01-.496.495z" fill="#F0B45B"/><path d="M13.313 24.568a.497.497 0 01-.351-.145L8.687 20.15a.496.496 0 01.7-.701l3.925 3.924 3.924-3.924a.496.496 0 01.7.7l-4.274 4.276a.49.49 0 01-.35.144z" fill="#F0B45B"/><path d="M24.149 33H2.478A2.48 2.48 0 010 30.522V2.478A2.48 2.48 0 012.478 0h15.737a.496.496 0 010 .991H2.478c-.82 0-1.487.667-1.487 1.487v28.044c0 .82.667 1.487 1.487 1.487h21.67c.82 0 1.487-.667 1.487-1.487V8.627a.496.496 0 01.992 0v21.896A2.48 2.48 0 0124.149 33z" fill="#292325"/><path d="M26.131 9.123h-7.916a.496.496 0 01-.495-.496V.71a.496.496 0 01.99 0v7.42h7.421a.496.496 0 010 .993z" fill="#292325"/><path d="M26.131 9.124a.496.496 0 01-.355-.15L17.861.844a.496.496 0 01.71-.692l7.916 8.131a.496.496 0 01-.356.84z" fill="#292325"/></symbol><symbol fill="none" viewBox="0 0 48 51" id="icon-percent" xmlns="http://www.w3.org/2000/svg"><path d="M45.686 25.66a1.466 1.466 0 010-1.296l1.865-3.816a4.342 4.342 0 00-1.873-5.767l-3.753-1.991a1.467 1.467 0 01-.762-1.049l-.734-4.184a4.343 4.343 0 00-4.905-3.564l-4.207.595a1.466 1.466 0 01-1.232-.4l-3.053-2.954a4.342 4.342 0 00-6.064 0l-3.053 2.954c-.33.318-.778.464-1.232.4l-4.207-.595a4.342 4.342 0 00-4.905 3.564l-.734 4.184c-.08.452-.357.834-.762 1.049l-3.753 1.99A4.343 4.343 0 00.45 20.548l1.865 3.817a1.46 1.46 0 010 1.295L.45 29.477a4.343 4.343 0 001.873 5.767l3.753 1.99c.405.216.683.598.762 1.05l.734 4.184a4.34 4.34 0 004.905 3.564l4.207-.595c.453-.065.902.082 1.232.4l3.053 2.954a4.346 4.346 0 006.064 0l3.053-2.954c.33-.319.779-.464 1.232-.4l4.207.595a4.342 4.342 0 004.905-3.564l.734-4.185c.08-.451.357-.833.762-1.048l3.753-1.991a4.343 4.343 0 001.873-5.767l-1.865-3.817zm-1.36 7.035l-3.753 1.991a4.333 4.333 0 00-2.251 3.099l-.734 4.184a1.47 1.47 0 01-1.66 1.206l-4.206-.595a4.332 4.332 0 00-3.643 1.183l-3.053 2.954a1.47 1.47 0 01-2.052 0l-3.053-2.954a4.328 4.328 0 00-3.642-1.183l-4.207.595a1.47 1.47 0 01-1.66-1.206l-.734-4.185a4.333 4.333 0 00-2.25-3.098l-3.754-1.991a1.47 1.47 0 01-.634-1.951l1.866-3.817a4.333 4.333 0 000-3.83L3.04 19.281a1.47 1.47 0 01.634-1.951l3.753-1.992a4.333 4.333 0 002.251-3.098l.734-4.185a1.47 1.47 0 011.66-1.205l4.206.595a4.333 4.333 0 003.643-1.184l3.053-2.954a1.47 1.47 0 012.052 0l3.053 2.954a4.332 4.332 0 003.642 1.184l4.207-.595a1.47 1.47 0 011.66 1.205l.733 4.185a4.332 4.332 0 002.252 3.098l3.752 1.992a1.47 1.47 0 01.634 1.95l-1.865 3.817a4.332 4.332 0 000 3.83l1.865 3.817a1.47 1.47 0 01-.634 1.95z" fill="#F0B45B"/><path d="M34.54 14.473a1.442 1.442 0 00-2.04 0L13.46 33.515a1.443 1.443 0 002.04 2.04l19.04-19.041a1.442 1.442 0 000-2.04zm-16.31-2.446a5.296 5.296 0 00-5.29 5.29 5.296 5.296 0 005.29 5.29 5.296 5.296 0 005.29-5.29 5.296 5.296 0 00-5.29-5.29zm0 7.694a2.407 2.407 0 01-2.404-2.404 2.407 2.407 0 012.404-2.405 2.407 2.407 0 012.404 2.405 2.407 2.407 0 01-2.404 2.404zm11.54 7.697a5.296 5.296 0 00-5.29 5.29 5.296 5.296 0 005.29 5.289 5.296 5.296 0 005.29-5.29 5.296 5.296 0 00-5.29-5.289zm0 7.694a2.407 2.407 0 01-2.404-2.404 2.407 2.407 0 012.404-2.405 2.407 2.407 0 012.404 2.405 2.407 2.407 0 01-2.404 2.404z" fill="#F0B45B"/></symbol><symbol fill="none" viewBox="0 0 51 50" id="icon-reserve" xmlns="http://www.w3.org/2000/svg"><path d="M47.178 25.032a1.244 1.244 0 00-1.598-.742l-11.67 4.275 9.433-9.427a1.249 1.249 0 000-1.762l-7.297-7.302a1.245 1.245 0 00-1.762 0l-9.252 9.246L30.22 7.01a1.244 1.244 0 00-.664-1.631l-9.512-4.01a1.244 1.244 0 00-1.632.663L13.288 14.19V1.246C13.288.558 12.73 0 12.042 0H1.246C.558 0 0 .558 0 1.246v47.338c0 .688.558 1.246 1.246 1.246h10.796c.152 0 .297-.032.431-.081.135.049.275.081.421.081.143 0 .288-.024.429-.076l36.664-13.432c.646-.237.978-.953.742-1.598l-3.551-9.692zM7.364 47.339H2.492V2.492h8.305v44.846H7.364zM27.442 7.19L20.36 23.989l-1.283 3.043-1.284 3.043-2.19 5.196-1.324 3.138-.991 2.355v-20.16L20.225 4.15l7.216 3.042zm-9.964 30.046L18.8 34.1l3.665-8.693 12.697-12.69 5.537 5.54-12.355 12.348-4.191 4.188-9.754 9.747 3.078-7.302zm-.937 8.685l13.176-13.167 15.55-5.697 2.694 7.353-31.42 11.51z" fill="#F0B45B"/><path d="M6.643 42.219c-.054 0-.106.012-.159.015a1.798 1.798 0 00-1.586 1.363 1.809 1.809 0 00-.054.422c0 .395.131.757.347 1.054.327.449.853.744 1.452.744.088 0 .17-.013.255-.026a1.803 1.803 0 001.265-.82c.147-.233.237-.503.263-.794.004-.053.015-.105.015-.16a1.796 1.796 0 00-1.798-1.798z" fill="#F0B45B"/></symbol><symbol fill="none" viewBox="0 0 50 50" id="icon-star" xmlns="http://www.w3.org/2000/svg"><circle cx="25" cy="25" r="23.5" stroke="#F0B45B" stroke-width="3"/><path d="M23.059 19.828L25 13.854l1.941 5.974a2.5 2.5 0 002.378 1.728H35.6l-5.082 3.692a2.5 2.5 0 00-.908 2.795l1.941 5.974-5.081-3.692a2.5 2.5 0 00-2.94 0l-5.081 3.692 1.94-5.974a2.5 2.5 0 00-.907-2.795L14.4 21.556h6.281a2.5 2.5 0 002.378-1.728z" stroke="#F0B45B" stroke-width="3"/></symbol><symbol fill="none" viewBox="0 0 43 50" id="icon-surface" xmlns="http://www.w3.org/2000/svg"><path d="M42.528 13.566l-.002-.039c-.022-.48-.036-.988-.045-1.553-.04-2.757-2.232-5.038-4.99-5.192-5.748-.32-10.195-2.195-13.995-5.899l-.032-.03a3.2 3.2 0 00-4.35 0l-.032.03c-3.8 3.704-8.247 5.578-13.995 5.9-2.757.153-4.949 2.434-4.99 5.19a51.53 51.53 0 01-.045 1.554l-.002.09c-.112 5.863-.25 13.158 2.19 19.78 1.342 3.642 3.374 6.807 6.04 9.409 3.037 2.963 7.014 5.316 11.821 6.992a3.648 3.648 0 001.188.201 3.586 3.586 0 001.19-.202c4.802-1.68 8.774-4.033 11.808-6.996 2.665-2.602 4.698-5.769 6.04-9.41 2.45-6.642 2.312-13.952 2.2-19.825zm-4.953 18.81c-2.574 6.978-7.829 11.772-16.064 14.652a.658.658 0 01-.443 0c-8.245-2.875-13.503-7.666-16.075-14.645-2.25-6.104-2.122-12.801-2.01-18.71l.001-.032c.023-.508.038-1.04.047-1.624a2.355 2.355 0 012.22-2.305c3.253-.182 6.11-.81 8.737-1.922 2.622-1.11 4.951-2.675 7.12-4.784a.27.27 0 01.363 0c2.168 2.11 4.498 3.674 7.12 4.784 2.626 1.112 5.484 1.74 8.737 1.922a2.355 2.355 0 012.22 2.305c.008.588.024 1.12.047 1.624.112 5.915.236 12.617-2.02 18.734z" fill="#F0B45B"/><path d="M21.289 12.54c-6.871 0-12.46 5.59-12.46 12.46 0 6.87 5.589 12.46 12.46 12.46 6.87 0 12.46-5.59 12.46-12.46 0-6.87-5.59-12.46-12.46-12.46zm0 21.986c-5.253 0-9.527-4.273-9.527-9.526s4.274-9.527 9.527-9.527c5.252 0 9.526 4.274 9.526 9.527 0 5.253-4.274 9.526-9.526 9.526z" fill="#F0B45B"/><path d="M24.87 21.133l-5.788 5.788-1.57-1.571a1.467 1.467 0 00-2.076 2.074l2.609 2.609a1.462 1.462 0 002.075 0l6.824-6.826a1.467 1.467 0 00-2.074-2.074z" fill="#F0B45B"/></symbol><symbol fill="none" viewBox="0 0 40 40" id="insta-black" xmlns="http://www.w3.org/2000/svg"><circle cx="20" cy="20" r="20" fill="#222"/><rect x="12.5" y="12.5" width="15" height="15" rx="2.5" stroke="#fff"/><circle cx="20" cy="20" r="3.5" stroke="#fff"/><circle cx="25" cy="15" r=".5" stroke="#fff"/></symbol><symbol fill="none" viewBox="0 0 40 40" id="insta-white" xmlns="http://www.w3.org/2000/svg"><circle cx="20" cy="20" r="20" fill="#fff"/><rect x="12.5" y="12.5" width="15" height="15" rx="2.5" stroke="#222"/><circle cx="20" cy="20" r="3.5" stroke="#222"/><circle cx="25" cy="15" r=".5" stroke="#222"/></symbol><symbol fill="none" viewBox="0 0 8 11" id="map-point" xmlns="http://www.w3.org/2000/svg"><path d="M1.285 5.5L4.031 10l2.745-4.5C7.5 4 7 1 4.031 1 1.06 1 .5 4 1.285 5.5z" stroke="#fff"/></symbol><symbol fill="none" viewBox="0 0 22 11" id="menu" xmlns="http://www.w3.org/2000/svg"><path stroke="#222" d="M0 .5h22m-22 5h22m-22 5h22"/></symbol><symbol fill="none" viewBox="0 0 14 15" id="search" xmlns="http://www.w3.org/2000/svg"><circle cx="6" cy="6" r="5.5" stroke="currentColor"/><path stroke="currentColor" d="M9.354 9.646l4.242 4.243"/></symbol></svg>